<?xml version="1.0" encoding="UTF-8"?>
<svg fill="#000" width="16px" height="16px" viewBox="0 0 16 16" version="1.1" xmlns="http://www.w3.org/2000/svg" >
    <!-- Generator: (null) (null) ((null)) - http://www.bohemiancoding.com/sketch -->
    <title>mc-search_16</title>
    <desc>Created with (null).</desc>
        <path d="M11.1716035,9.7573899 L14.2426407,12.8284271 L12.8284271,14.2426407 L9.7573899,11.1716035 C8.96695688,11.6951232 8.01908233,12 7,12 C4.23857625,12 2,9.76142375 2,7 C2,4.23857625 4.23857625,2 7,2 C9.76142375,2 12,4.23857625 12,7 C12,8.01908233 11.6951232,8.96695688 11.1716035,9.7573899 Z M7,10.5 C8.93299662,10.5 10.5,8.93299662 10.5,7 C10.5,5.06700338 8.93299662,3.5 7,3.5 C5.06700338,3.5 3.5,5.06700338 3.5,7 C3.5,8.93299662 5.06700338,10.5 7,10.5 Z"></path>
</svg>